<svg xmlns="http://www.w3.org/2000/svg" viewBox="0 0 28 28" shape-rendering="crispEdges">
<rect width="28" height="28" fill="none"/>
<g fill="#1A0A20"><rect x="9" y="2" width="10" height="2"/><rect x="7" y="4" width="14" height="5"/><rect x="5" y="9" width="18" height="11"/><rect x="8" y="20" width="5" height="6"/><rect x="16" y="20" width="5" height="6"/><rect x="20" y="6" width="6" height="4"/></g>
<g fill="#4A1D60"><rect x="8" y="5" width="12" height="4"/><rect x="6" y="10" width="16" height="10"/><rect x="21" y="7" width="4" height="2"/><rect x="9" y="20" width="4" height="5"/><rect x="16" y="20" width="4" height="5"/></g>
<g fill="#6B2D8C"><rect x="10" y="4" width="8" height="5"/><rect x="8" y="10" width="12" height="8"/><rect x="6" y="12" width="3" height="5"/><rect x="19" y="12" width="3" height="5"/></g>
<g fill="#9B4DBC"><rect x="10" y="5" width="6" height="2"/><rect x="8" y="10" width="4" height="3"/></g>
<g fill="#FF2020"><rect x="10" y="7" width="2" height="2"/><rect x="16" y="7" width="2" height="2"/></g>
</svg>