<svg xmlns="http://www.w3.org/2000/svg" viewBox="0 0 640 360" shape-rendering="crispEdges">
  <title>Horizonte industrial após o ataque dos kaijus</title>
  <rect width="640" height="360" fill="#0D0D1A"/>
  <rect y="0" width="640" height="181" fill="#1A1A2E"/>
  <g fill="#2A2A3A">
    <rect x="6" y="80" width="82" height="172"/>
    <rect x="20" y="66" width="14" height="14"/>
    <rect x="111" y="105" width="55" height="147"/>
    <rect x="185" y="72" width="83" height="180"/>
    <rect x="203" y="57" width="19" height="15"/>
    <rect x="291" y="114" width="62" height="138"/>
    <rect x="373" y="76" width="80" height="176"/>
    <rect x="398" y="60" width="13" height="16"/>
    <rect x="479" y="109" width="57" height="143"/>
    <rect x="558" y="83" width="77" height="169"/>
  </g>
  <g fill="#3A3A5A">
    <rect x="26" y="47" width="4" height="19"/>
    <rect x="22" y="45" width="12" height="2"/>
    <rect x="124" y="93" width="30" height="3"/>
    <rect x="193" y="65" width="67" height="3"/>
    <rect x="207" y="40" width="3" height="17"/>
    <rect x="202" y="38" width="13" height="2"/>
    <rect x="313" y="97" width="4" height="17"/>
    <rect x="403" y="43" width="4" height="17"/>
    <rect x="397" y="41" width="16" height="2"/>
    <rect x="486" y="98" width="43" height="3"/>
    <rect x="585" y="66" width="4" height="17"/>
    <rect x="580" y="64" width="14" height="2"/>
  </g>
  <g fill="#101018">
    <rect x="0" y="190" width="69" height="170"/>
    <rect x="62" y="209" width="72" height="151"/>
    <rect x="126" y="180" width="48" height="180"/>
    <rect x="169" y="213" width="78" height="147"/>
    <rect x="240" y="184" width="81" height="176"/>
    <rect x="314" y="208" width="62" height="152"/>
    <rect x="370" y="178" width="69" height="182"/>
    <rect x="432" y="215" width="79" height="145"/>
    <rect x="504" y="187" width="72" height="173"/>
    <rect x="569" y="209" width="71" height="151"/>
  </g>
  <g fill="#3A3A5A">
    <rect x="0" y="246" width="640" height="3"/>
    <rect x="0" y="294" width="640" height="2"/>
    <rect x="17" y="197" width="9" height="3"/>
    <rect x="87" y="215" width="14" height="2"/>
    <rect x="146" y="187" width="11" height="2"/>
    <rect x="189" y="222" width="21" height="2"/>
    <rect x="268" y="191" width="17" height="2"/>
    <rect x="333" y="216" width="20" height="2"/>
    <rect x="389" y="186" width="15" height="2"/>
    <rect x="449" y="221" width="22" height="2"/>
    <rect x="520" y="194" width="18" height="2"/>
    <rect x="584" y="216" width="19" height="2"/>
  </g>
  <g fill="#FF6A20">
    <rect x="48" y="216" width="4" height="9"/>
    <rect x="159" y="197" width="5" height="13"/>
    <rect x="304" y="199" width="4" height="11"/>
    <rect x="426" y="191" width="6" height="15"/>
    <rect x="557" y="210" width="4" height="11"/>
    <rect x="70" y="121" width="3" height="7"/>
    <rect x="244" y="101" width="3" height="7"/>
    <rect x="517" y="132" width="3" height="7"/>
  </g>
  <g fill="#FFD93D">
    <rect x="49" y="215" width="2" height="4"/>
    <rect x="160" y="195" width="3" height="6"/>
    <rect x="305" y="197" width="2" height="6"/>
    <rect x="427" y="189" width="3" height="7"/>
    <rect x="558" y="208" width="2" height="5"/>
  </g>
  <g fill="#5A5A7A">
    <rect x="36" y="108" width="4" height="5"/>
    <rect x="48" y="108" width="4" height="5"/>
    <rect x="122" y="133" width="4" height="5"/>
    <rect x="145" y="133" width="4" height="5"/>
    <rect x="211" y="104" width="4" height="5"/>
    <rect x="228" y="104" width="4" height="5"/>
    <rect x="383" y="113" width="4" height="5"/>
    <rect x="420" y="114" width="4" height="5"/>
    <rect x="575" y="117" width="4" height="5"/>
    <rect x="609" y="117" width="4" height="5"/>
  </g>
</svg>
