<svg xmlns="http://www.w3.org/2000/svg" viewBox="0 0 28 28" shape-rendering="crispEdges">
  <title>Mech do jogador</title>
  <g fill="#101018">
    <rect x="12" y="1" width="4" height="4"/>
    <rect x="9" y="4" width="10" height="7"/>
    <rect x="7" y="7" width="14" height="4"/>
    <rect x="6" y="11" width="16" height="5"/>
    <rect x="3" y="12" width="5" height="9"/>
    <rect x="20" y="12" width="5" height="9"/>
    <rect x="2" y="19" width="6" height="5"/>
    <rect x="20" y="19" width="6" height="5"/>
    <rect x="8" y="14" width="12" height="9"/>
    <rect x="8" y="22" width="5" height="5"/>
    <rect x="15" y="22" width="5" height="5"/>
    <rect x="6" y="26" width="8" height="2"/>
    <rect x="14" y="26" width="8" height="2"/>
  </g>
  <g fill="#3098A0">
    <rect x="13" y="2" width="2" height="3"/>
    <rect x="10" y="5" width="8" height="5"/>
    <rect x="8" y="8" width="12" height="2"/>
    <rect x="7" y="12" width="14" height="3"/>
    <rect x="4" y="13" width="3" height="8"/>
    <rect x="21" y="13" width="3" height="8"/>
    <rect x="3" y="20" width="4" height="3"/>
    <rect x="21" y="20" width="4" height="3"/>
    <rect x="9" y="15" width="10" height="7"/>
    <rect x="9" y="23" width="3" height="4"/>
    <rect x="16" y="23" width="3" height="4"/>
    <rect x="7" y="26" width="6" height="1"/>
    <rect x="15" y="26" width="6" height="1"/>
  </g>
  <g fill="#4FE0E0">
    <rect x="11" y="5" width="6" height="4"/>
    <rect x="8" y="12" width="12" height="2"/>
    <rect x="5" y="14" width="2" height="4"/>
    <rect x="21" y="14" width="2" height="4"/>
    <rect x="10" y="15" width="8" height="5"/>
    <rect x="9" y="23" width="2" height="2"/>
    <rect x="16" y="23" width="2" height="2"/>
  </g>
  <g fill="#80F0F0">
    <rect x="11" y="5" width="4" height="1"/>
    <rect x="8" y="12" width="4" height="1"/>
    <rect x="10" y="15" width="2" height="4"/>
    <rect x="5" y="14" width="1" height="3"/>
  </g>
  <g fill="#101018">
    <rect x="10" y="7" width="3" height="2"/>
    <rect x="15" y="7" width="3" height="2"/>
    <rect x="12" y="15" width="4" height="4"/>
  </g>
  <g fill="#FFD93D">
    <rect x="11" y="7" width="2" height="1"/>
    <rect x="15" y="7" width="2" height="1"/>
    <rect x="13" y="16" width="2" height="2"/>
  </g>
</svg>
